<?xml version="1.0" encoding="UTF-8" standalone="no"?>
<!DOCTYPE svg PUBLIC "-//W3C//DTD SVG 1.1//EN" "http://www.w3.org/Graphics/SVG/1.1/DTD/svg11.dtd">
<svg width="100%" height="100%" viewBox="0 0 100 100" version="1.1" xmlns="http://www.w3.org/2000/svg" xmlns:xlink="http://www.w3.org/1999/xlink" xml:space="preserve" xmlns:serif="http://www.serif.com/" style="fill-rule:evenodd;clip-rule:evenodd;stroke-linejoin:round;stroke-miterlimit:2;">
    <g transform="matrix(9.65459,0,0,9.65459,-8.00774,-7.83505)">
        <path d="M6.83,8.054C6.789,8.013 6.721,8.013 6.679,8.054L5.123,9.611C4.402,10.331 3.186,10.408 2.391,9.611C1.594,8.814 1.67,7.599 2.391,6.879L3.947,5.322C3.988,5.281 3.988,5.213 3.947,5.171L3.414,4.638C3.372,4.597 3.304,4.597 3.262,4.638L1.706,6.194C0.573,7.327 0.573,9.161 1.706,10.292C2.839,11.424 4.673,11.425 5.804,10.292L7.361,8.736C7.402,8.695 7.402,8.626 7.361,8.585L6.83,8.054ZM10.294,1.706C9.161,0.573 7.327,0.573 6.196,1.706L4.638,3.262C4.597,3.304 4.597,3.372 4.638,3.414L5.17,3.946C5.211,3.987 5.279,3.987 5.321,3.946L6.877,2.389C7.598,1.669 8.814,1.592 9.609,2.389C10.406,3.186 10.33,4.401 9.609,5.121L8.053,6.678C8.012,6.719 8.012,6.787 8.053,6.829L8.586,7.362C8.628,7.404 8.696,7.404 8.737,7.362L10.294,5.806C11.425,4.673 11.425,2.839 10.294,1.706ZM7.314,4.129C7.272,4.088 7.204,4.088 7.163,4.129L4.129,7.161C4.088,7.203 4.088,7.271 4.129,7.312L4.659,7.843C4.701,7.884 4.769,7.884 4.811,7.843L7.843,4.811C7.884,4.769 7.884,4.701 7.843,4.659L7.314,4.129Z" style="fill-rule:nonzero;"/>
    </g>
</svg>
